<svg width="70" height="42" viewBox="0 0 70 42" fill="none" xmlns="http://www.w3.org/2000/svg">
<path d="M19.5861 15.0943C19.5861 15.9496 19.6786 16.643 19.8404 17.1516C20.0253 17.6601 20.2565 18.2149 20.5801 18.8159C20.6957 19.0008 20.7419 19.1857 20.7419 19.3475C20.7419 19.5787 20.6032 19.8098 20.3027 20.041L18.8465 21.0118C18.6384 21.1505 18.4304 21.2198 18.2455 21.2198C18.0143 21.2198 17.7831 21.1043 17.552 20.8962C17.2284 20.5495 16.951 20.1797 16.7198 19.8098C16.4887 19.4169 16.2575 18.9777 16.0033 18.446C14.2003 20.5726 11.935 21.6359 9.20737 21.6359C7.26569 21.6359 5.71696 21.0812 4.58431 19.9716C3.45166 18.8621 2.87378 17.3827 2.87378 15.5335C2.87378 13.5687 3.56724 11.9737 4.97727 10.7717C6.38731 9.56974 8.25964 8.96874 10.6405 8.96874C11.4264 8.96874 12.2355 9.03808 13.0907 9.15366C13.946 9.26924 14.8244 9.45416 15.749 9.6622V7.97478C15.749 6.21802 15.3792 4.99291 14.6626 4.27633C13.9229 3.55976 12.6747 3.21303 10.8948 3.21303C10.0858 3.21303 9.2536 3.30549 8.39834 3.51353C7.54307 3.72156 6.71092 3.97583 5.90188 4.29945C5.53204 4.46125 5.25466 4.55371 5.09285 4.59995C4.93104 4.64618 4.81546 4.66929 4.723 4.66929C4.39939 4.66929 4.23758 4.43814 4.23758 3.95272V2.82007C4.23758 2.45022 4.28381 2.17284 4.39939 2.01103C4.51497 1.84922 4.723 1.68742 5.04662 1.52561C5.85565 1.10953 6.8265 0.762805 7.95915 0.485421C9.0918 0.184922 10.2938 0.0462306 11.5651 0.0462306C14.3159 0.0462306 16.3269 0.670344 17.6213 1.91857C18.8927 3.1668 19.5399 5.06225 19.5399 7.60494V15.0943H19.5861ZM10.2013 18.6078C10.9641 18.6078 11.7501 18.4691 12.5822 18.1917C13.4144 17.9144 14.154 17.4058 14.7782 16.7124C15.148 16.2732 15.4254 15.7878 15.5641 15.233C15.7028 14.6782 15.7952 14.0079 15.7952 13.222V12.2511C15.1249 12.0893 14.4083 11.9506 13.6686 11.8582C12.9289 11.7657 12.2124 11.7195 11.4958 11.7195C9.94706 11.7195 8.81441 12.02 8.05161 12.6441C7.2888 13.2682 6.91896 14.1466 6.91896 15.3023C6.91896 16.3888 7.19634 17.1978 7.77422 17.7526C8.32899 18.3304 9.13803 18.6078 10.2013 18.6078ZM28.7629 21.1043C28.3468 21.1043 28.0695 21.0349 27.8845 20.8731C27.6996 20.7344 27.5378 20.4108 27.3991 19.9716L21.967 2.10349C21.8283 1.64119 21.759 1.34069 21.759 1.17888C21.759 0.809036 21.9439 0.600998 22.3137 0.600998H24.579C25.0182 0.600998 25.3187 0.670344 25.4805 0.832151C25.6655 0.970843 25.8042 1.29446 25.9429 1.73365L29.8262 17.036L33.4322 1.73365C33.5478 1.27134 33.6865 0.970843 33.8714 0.832151C34.0563 0.693459 34.3799 0.600998 34.796 0.600998H36.6452C37.0844 0.600998 37.3849 0.670344 37.5698 0.832151C37.7548 0.970843 37.9166 1.29446 38.009 1.73365L41.6613 17.2209L45.6602 1.73365C45.7989 1.27134 45.9607 0.970843 46.1225 0.832151C46.3074 0.693459 46.6079 0.600998 47.024 0.600998H49.1737C49.5436 0.600998 49.7516 0.78592 49.7516 1.17888C49.7516 1.29446 49.7285 1.41003 49.7054 1.54873C49.6823 1.68742 49.636 1.87234 49.5436 2.12661L43.9728 19.9947C43.8341 20.457 43.6723 20.7575 43.4874 20.8962C43.3024 21.0349 43.0019 21.1274 42.609 21.1274H40.6211C40.1819 21.1274 39.8814 21.058 39.6965 20.8962C39.5115 20.7344 39.3497 20.4339 39.2573 19.9716L35.6744 5.06225L32.1146 19.9485C31.9991 20.4108 31.8604 20.7113 31.6754 20.8731C31.4905 21.0349 31.1669 21.1043 30.7508 21.1043H28.7629ZM58.4661 21.7284C57.2641 21.7284 56.0621 21.5897 54.9063 21.3123C53.7506 21.0349 52.8491 20.7344 52.2481 20.3877C51.8782 20.1797 51.624 19.9485 51.5315 19.7405C51.439 19.5324 51.3928 19.3013 51.3928 19.0932V17.9144C51.3928 17.4289 51.5777 17.1978 51.9245 17.1978C52.0631 17.1978 52.2018 17.2209 52.3405 17.2671C52.4792 17.3134 52.6873 17.4058 52.9184 17.4983C53.7043 17.845 54.5596 18.1224 55.4611 18.3073C56.3857 18.4922 57.2872 18.5847 58.2118 18.5847C59.6681 18.5847 60.8007 18.3304 61.5866 17.8219C62.3726 17.3134 62.7886 16.5737 62.7886 15.6259C62.7886 14.9787 62.5806 14.4471 62.1645 14.0079C61.7485 13.5687 60.9625 13.1757 59.8299 12.8059L56.4782 11.7657C54.7907 11.234 53.5425 10.4481 52.7797 9.40793C52.0169 8.39086 51.624 7.25821 51.624 6.05621C51.624 5.08537 51.832 4.2301 52.2481 3.49041C52.6641 2.75072 53.2189 2.10349 53.9124 1.59496C54.6058 1.0633 55.3917 0.670344 56.3164 0.39296C57.241 0.115576 58.2118 0 59.2289 0C59.7374 0 60.2691 0.0231153 60.7776 0.0924612C61.3093 0.161807 61.7947 0.254268 62.2801 0.34673C62.7424 0.462306 63.1816 0.577883 63.5977 0.716574C64.0138 0.855266 64.3374 0.993958 64.5685 1.13265C64.8921 1.31757 65.1233 1.50249 65.262 1.71053C65.4007 1.89545 65.47 2.14972 65.47 2.47334V3.55976C65.47 4.04518 65.2851 4.29945 64.9384 4.29945C64.7534 4.29945 64.4529 4.20699 64.06 4.02206C62.7424 3.42106 61.263 3.12057 59.6218 3.12057C58.3043 3.12057 57.2641 3.3286 56.5475 3.76779C55.8309 4.20699 55.4611 4.87733 55.4611 5.82506C55.4611 6.47228 55.6922 7.02705 56.1546 7.46624C56.6169 7.90543 57.4721 8.34463 58.6972 8.73759L61.9796 9.77777C63.6439 10.3094 64.8459 11.0491 65.5625 11.9968C66.2791 12.9446 66.6258 14.031 66.6258 15.233C66.6258 16.2269 66.4177 17.1284 66.0248 17.9144C65.6087 18.7003 65.0539 19.3937 64.3374 19.9485C63.6208 20.5264 62.7655 20.9425 61.7716 21.243C60.7314 21.5666 59.645 21.7284 58.4661 21.7284Z" fill="#CBCBCB"/>
<path fill-rule="evenodd" clip-rule="evenodd" d="M62.8348 32.9626C55.2299 38.5796 44.1807 41.5615 34.6804 41.5615C21.3659 41.5615 9.3691 36.6379 0.3079 28.4551C-0.408675 27.8079 0.238554 26.9295 1.09382 27.438C10.8947 33.1244 22.984 36.5686 35.4894 36.5686C43.9265 36.5686 53.1957 34.8118 61.7253 31.2058C62.9966 30.6279 64.083 32.038 62.8348 32.9626Z" fill="#CBCBCB"/>
<path fill-rule="evenodd" clip-rule="evenodd" d="M66.0017 29.3566C65.0309 28.1084 59.5756 28.7556 57.1023 29.0561C56.3626 29.1486 56.247 28.5014 56.9174 28.0159C61.2631 24.9647 68.4057 25.8431 69.2378 26.8602C70.07 27.9004 69.0067 35.043 64.9384 38.464C64.3143 38.9957 63.7133 38.7183 63.9907 38.0249C64.9153 35.7364 66.9725 30.5817 66.0017 29.3566Z" fill="#CBCBCB"/>
</svg>
