<svg width="91" height="23" viewBox="0 0 91 23" fill="none" xmlns="http://www.w3.org/2000/svg">
<path d="M16.5647 6.32413C15.8635 5.60787 15.1017 5.05934 14.294 4.67836C13.4864 4.29738 12.4653 4.11442 11.2919 4.11442C10.3472 4.11442 9.44794 4.28215 8.61 4.61725C7.77207 4.95235 7.04021 5.42491 6.41552 6.03454C5.77542 6.64418 5.27259 7.39091 4.90684 8.25949C4.54109 9.12807 4.35831 10.088 4.35831 11.1548C4.35831 12.2216 4.54109 13.1816 4.90684 14.0501C5.27259 14.9187 5.77542 15.6502 6.41552 16.2597C7.05562 16.8691 7.80217 17.3569 8.64046 17.6922C9.47876 18.0275 10.3929 18.195 11.3528 18.195C12.3737 18.195 13.273 18.0579 14.0347 17.7683C14.7965 17.4788 15.452 17.0826 16.0007 16.5951C16.3665 16.2597 16.7018 15.8482 16.9912 15.3606C17.2807 14.8578 17.5094 14.3093 17.677 13.6996H11.231V10.0423H21.7457C21.8066 10.2862 21.8523 10.5756 21.898 10.9414C21.9437 11.3071 21.9591 11.6424 21.9591 11.9929C21.9591 13.4405 21.7457 14.751 21.319 15.955C20.8923 17.1591 20.237 18.2103 19.3837 19.1399C18.4237 20.1608 17.2807 20.938 15.9398 21.5018C14.5988 22.0656 13.0595 22.3401 11.3376 22.3401C9.78322 22.3401 8.32023 22.0657 6.94882 21.5018C5.57741 20.9378 4.37354 20.1608 3.33723 19.1704C2.31633 18.1798 1.50868 17.0064 0.899044 15.6502C0.289406 14.294 0 12.7852 0 11.17C0 9.55492 0.304638 8.06129 0.899044 6.68988C1.49345 5.31846 2.3011 4.14488 3.33723 3.15445C4.35813 2.16383 5.56217 1.40188 6.94882 0.838116C8.33546 0.274355 9.79845 0 11.3376 0C13.1054 0 14.6748 0.304638 16.0312 0.914275C17.3876 1.52391 18.5608 2.36203 19.5514 3.4288L16.5647 6.32413ZM43.5828 16.1378C43.5828 18.0122 42.8971 19.5209 41.5255 20.6639C40.1389 21.7761 38.4474 22.3401 36.4512 22.3401C34.6833 22.3401 33.1137 21.8218 31.7576 20.7857C30.4014 19.7496 29.4717 18.3323 28.9536 16.5493L31.5746 15.4672C31.7576 16.1073 32.0015 16.6863 32.3213 17.2044C32.6412 17.7225 33.0071 18.1646 33.4338 18.5303C33.8605 18.8961 34.3328 19.1856 34.8511 19.3989C35.3693 19.6121 35.9177 19.7189 36.4968 19.7189C37.7462 19.7189 38.7825 19.3989 39.575 18.7437C40.3674 18.1036 40.7636 17.2351 40.7636 16.1683C40.7636 15.2692 40.4283 14.5073 39.7732 13.8672C39.1635 13.2577 38.0053 12.6481 36.3139 12.0691C34.6072 11.4594 33.5404 11.0328 33.1137 10.8195C30.8433 9.66136 29.7156 7.9699 29.7156 5.71449C29.7156 4.14488 30.3403 2.80393 31.59 1.69146C32.87 0.578993 34.4242 0.0152319 36.2834 0.0152319C37.914 0.0152319 39.3312 0.426855 40.5199 1.26479C41.7085 2.08767 42.5162 3.10875 42.9124 4.34308L40.3674 5.39444C40.1237 4.60202 39.6511 3.93164 38.9503 3.41339C38.2492 2.88028 37.3807 2.62097 36.3748 2.62097C35.293 2.62097 34.3938 2.92579 33.6625 3.5202C32.931 4.06872 32.5652 4.80022 32.5652 5.68403C32.5652 6.41552 32.8548 7.05562 33.4338 7.58892C34.0739 8.12222 35.4605 8.76214 37.5787 9.49381C39.7427 10.2251 41.2971 11.1396 42.2266 12.2062C43.1256 13.2729 43.5829 14.5834 43.5829 16.1378H43.5828ZM58.8063 21.8523H56.1853V19.8256H56.0633C55.6518 20.5418 54.9967 21.1362 54.1433 21.6238C53.2748 22.0962 52.3755 22.3401 51.446 22.3401C49.6478 22.3401 48.2763 21.8218 47.3164 20.8009C46.3564 19.78 45.8686 18.3171 45.8686 16.4272V7.22335H48.6116V16.2446C48.6726 18.6371 49.8764 19.8259 52.2232 19.8259C53.3203 19.8259 54.2347 19.3838 54.9662 18.5C55.6977 17.6162 56.0633 16.5494 56.0633 15.3151V7.22317H58.8063V21.8523ZM65.0695 2.17907C65.0695 2.71254 64.8865 3.16968 64.5056 3.55066C64.1246 3.93164 63.6674 4.1146 63.1341 4.1146C62.6008 4.1146 62.1435 3.93146 61.7627 3.55066C61.3819 3.16986 61.1988 2.71254 61.1988 2.17907C61.1988 1.64559 61.3817 1.18863 61.7627 0.807652C62.1437 0.426674 62.6008 0.24371 63.1341 0.24371C63.6674 0.24371 64.1246 0.426855 64.5056 0.807652C64.8865 1.18845 65.0695 1.64577 65.0695 2.17907ZM64.5056 7.22317V21.8523H61.7627V7.22317H64.5056ZM72.9326 22.0962C71.744 22.0962 70.7535 21.7304 69.9611 20.9991C69.1687 20.2678 68.7725 19.2312 68.7571 17.9208V9.73752H66.1818V7.22317H68.742V2.74301H71.485V7.22317H75.0661V9.73752H71.4848V17.0216C71.4848 17.997 71.668 18.6522 72.0488 19.0027C72.4296 19.3532 72.8564 19.5209 73.329 19.5209C73.5422 19.5209 73.7555 19.4903 73.9689 19.4448C74.1823 19.3992 74.3651 19.3227 74.5479 19.2466L75.4165 21.7C74.7309 21.9591 73.8927 22.0962 72.9326 22.0962V22.0962ZM83.2036 22.3247C81.0548 22.3247 79.2872 21.5934 77.8851 20.1151C76.4985 18.6369 75.7975 16.7779 75.7975 14.5377C75.7975 12.3128 76.468 10.4538 77.8242 8.97557C79.1804 7.49735 80.9025 6.75062 83.0206 6.75062C85.1846 6.75062 86.9218 7.45183 88.2018 8.85371C89.4818 10.2556 90.1219 12.2214 90.1219 14.7512L90.0915 15.0558H78.6014C78.6471 16.4883 79.1196 17.6465 80.0339 18.5151C80.9482 19.3837 82.0454 19.8256 83.3255 19.8256C85.0778 19.8256 86.4494 18.957 87.4399 17.2046L89.8933 18.3932C89.2381 19.6275 88.3239 20.5875 87.1657 21.2885C85.9923 21.9743 84.6664 22.3247 83.2036 22.3247V22.3247ZM78.8148 12.7701H87.2114C87.1352 11.7492 86.7236 10.9109 85.9771 10.2405C85.2305 9.57015 84.2245 9.23469 82.9749 9.23469C81.9388 9.23469 81.0548 9.55474 80.3083 10.1947C79.5463 10.85 79.0587 11.7033 78.8148 12.7701Z" fill="#CBCBCB"/>
</svg>
