<svg width="138" height="55" viewBox="0 0 138 55" fill="none" xmlns="http://www.w3.org/2000/svg">
<path d="M55.451 16.4937L59.0205 15.6321V32.8643C59.0205 34.7722 59.5744 35.8799 60.6822 36.2492C60.1283 37.2955 59.2051 37.8493 57.8512 37.8493C56.251 37.8493 55.3894 36.7416 55.3894 34.4644V16.4937H55.451ZM64.4363 37.5416V25.1098H62.4669V22.1557H68.0674V37.5416H64.4363V37.5416ZM66.2826 16.2475C66.8365 16.2475 67.3289 16.4321 67.7597 16.863C68.1905 17.2938 68.3751 17.7861 68.3751 18.34C68.3751 18.8939 68.1905 19.3862 67.7597 19.8171C67.3289 20.2479 66.8365 20.4325 66.2826 20.4325C65.7287 20.4325 65.2364 20.2479 64.8056 19.8171C64.3748 19.3862 64.1902 18.8939 64.1902 18.34C64.1902 17.7861 64.3748 17.2938 64.8056 16.863C65.2364 16.4321 65.7287 16.2475 66.2826 16.2475ZM82.0994 37.5416V28.6793C82.0994 27.3869 81.8532 26.4022 81.3608 25.8483C80.8685 25.2329 80.0684 24.9252 78.8991 24.9252C78.3452 24.9252 77.7913 25.0483 77.2374 25.356C76.622 25.6637 76.1912 26.033 75.8219 26.4638V37.5416H72.2524V22.2173H74.8372L75.5142 23.6328C76.4989 22.4634 77.9144 21.9095 79.8222 21.9095C81.6685 21.9095 83.0841 22.4634 84.1303 23.5712C85.1765 24.679 85.7304 26.2176 85.7304 28.1254V37.5416H82.0994V37.5416ZM88.4999 29.8487C88.4999 27.51 89.1769 25.6022 90.5308 24.1251C91.8848 22.6481 93.6696 21.9095 95.8851 21.9095C98.2238 21.9095 100.009 22.5865 101.301 24.002C102.593 25.4175 103.209 27.3254 103.209 29.7871C103.209 32.2489 102.532 34.1567 101.239 35.6338C99.947 37.0493 98.1623 37.7878 95.8236 37.7878C93.4849 37.7878 91.7002 37.0493 90.4078 35.6338C89.1769 34.1567 88.4999 32.2489 88.4999 29.8487ZM92.2541 29.8487C92.2541 33.2336 93.4849 34.8952 95.8851 34.8952C96.9929 34.8952 97.8545 34.4644 98.5315 33.6028C99.2085 32.7412 99.5162 31.4488 99.5162 29.8487C99.5162 26.5253 98.2853 24.8636 95.8851 24.8636C94.7774 24.8636 93.8542 25.2944 93.2388 26.156C92.5618 27.0177 92.2541 28.2485 92.2541 29.8487ZM115.948 37.5416V36.6185C115.641 36.9262 115.148 37.2339 114.471 37.4801C113.794 37.7263 113.056 37.8493 112.256 37.8493C110.102 37.8493 108.44 37.1724 107.209 35.8184C105.978 34.4644 105.363 32.5566 105.363 30.1564C105.363 27.7562 106.04 25.7868 107.455 24.2482C108.871 22.7096 110.594 21.9711 112.748 21.9711C113.917 21.9711 114.964 22.2173 115.948 22.7096V16.5552L119.518 15.6936V37.5416H115.948ZM115.948 25.8483C115.21 25.2329 114.41 24.9252 113.548 24.9252C112.133 24.9252 111.025 25.356 110.225 26.2176C109.425 27.0792 109.055 28.3716 109.055 29.9718C109.055 33.172 110.594 34.7722 113.671 34.7722C114.041 34.7722 114.41 34.6491 114.964 34.4644C115.456 34.2798 115.764 34.0336 115.948 33.849V25.8483V25.8483ZM136.812 30.9565H125.857C125.918 32.1873 126.349 33.1105 127.088 33.7875C127.888 34.4644 128.873 34.8337 130.227 34.8337C131.827 34.8337 133.119 34.4029 133.919 33.5413L135.335 36.2492C134.104 37.2955 132.196 37.7878 129.673 37.7878C127.334 37.7878 125.488 37.1108 124.134 35.7569C122.78 34.4029 122.103 32.495 122.103 30.0333C122.103 27.6331 122.841 25.6637 124.318 24.1866C125.795 22.7096 127.58 21.9711 129.673 21.9711C131.888 21.9711 133.673 22.6481 135.027 23.9405C136.381 25.2944 137.058 26.9561 137.058 28.9871C137.119 29.4179 136.996 30.0333 136.812 30.9565V30.9565ZM125.98 28.2485H133.488C133.242 26.033 132.011 24.8636 129.796 24.8636C127.765 24.9252 126.472 26.033 125.98 28.2485Z" fill="#CBCBCB"/>
<path d="M38.2802 28.5563L37.6647 35.6338L35.6338 34.2183L35.88 30.6488V30.5873V30.5257L35.8184 30.4642L35.7569 30.4026L31.3873 27.5101L31.4488 24.3713L38.2802 28.5563V28.5563ZM27.5716 36.2493L24.4329 33.8491V34.403C24.4329 34.5261 24.3713 34.6491 24.3098 34.7107L21.9711 36.3108L24.5559 38.4033L24.6175 38.4648V38.5879L24.7406 41.0497L27.6331 43.4499L27.5716 36.2493V36.2493ZM7.81607 39.3265L9.29311 46.404L15.3859 52.8661L14.3397 45.727L7.81607 39.3265ZM13.5396 40.3727L12.0626 30.4642L4.67734 24.3098L6.64674 33.9106L13.5396 40.3727ZM11.201 24.3713L9.17003 10.3394L0.677002 5.04663L3.44647 18.2785L11.201 24.3713V24.3713Z" fill="#CBCBCB"/>
<path d="M44.3116 24.7405L43.3885 31.4487L38.3419 35.5106L38.9573 28.6177L44.3116 24.7405ZM28.2487 36.2491L28.3103 43.5113L34.7724 38.3416L35.2032 31.2641L28.2487 36.2491V36.2491ZM24.0638 39.2032L14.9553 45.7269L16.0631 53.2352L24.31 46.65L24.0638 39.2032ZM23.8176 34.2797L23.3868 24.4328L12.7397 30.5256L14.2168 40.7418L23.8176 34.2797V34.2797ZM23.1406 18.7092L22.5867 5.41577L9.78564 10.3393L11.8781 24.6174L23.1406 18.7092V18.7092Z" fill="#CBCBCB"/>
<path d="M45.05 24.002C45.05 23.9405 45.05 23.9405 45.05 24.002V23.8789C45.05 23.8789 45.05 23.8174 44.9884 23.8174C44.9884 23.8174 44.9269 23.8174 44.9269 23.7559L37.5416 19.6324C37.4185 19.5709 37.2955 19.5709 37.2339 19.6324L30.9565 23.4481H30.8949V23.8174L30.8334 27.1408L28.3101 25.4791C28.187 25.4175 28.0639 25.4175 27.9408 25.4791L24.1867 27.5716L24.002 23.8789V23.8174V23.7559V23.6943V23.6328V23.5712H23.9405L20.1248 21.0479L23.6943 19.2016C23.8174 19.1401 23.8789 19.017 23.8789 18.8939L23.202 4.92349V4.86195C23.202 4.86195 23.202 4.80041 23.1404 4.80041C23.1404 4.80041 23.1404 4.73886 23.0789 4.73886L13.4165 0.0615437C13.355 1.37561e-08 13.2934 0 13.2319 0L0.123087 4.06188C0.123087 4.06188 0.0615436 4.06188 0.0615436 4.12343C0.0615436 4.12343 0 4.12343 0 4.18497V4.55423L2.89255 18.6477C2.89255 18.7093 2.9541 18.7708 3.01564 18.8324L6.95443 21.9095L4.06188 23.2635C4.06188 23.2635 4.00034 23.2635 4.00034 23.3251C4.00034 23.3251 4.00034 23.3866 3.9388 23.3866V23.5097L6.15437 34.0952C6.15437 34.1567 6.21591 34.2183 6.27745 34.2798L9.04692 36.8647L7.20061 37.9724L7.13907 38.034C7.13907 38.034 7.13907 38.0955 7.07752 38.0955V38.2802L8.80074 46.4655C8.80074 46.527 8.86229 46.5886 8.86229 46.6501L15.5705 54.0353H15.6321C15.6321 54.0353 15.6936 54.0353 15.6936 54.0969H16.0014L24.8636 47.0194C24.9252 46.9578 24.9867 46.8347 24.9867 46.7732L24.8021 41.9112L27.7562 44.373C27.7562 44.373 27.8177 44.373 27.8177 44.4345H28.1255L35.2645 38.7725C35.3261 38.711 35.3876 38.6494 35.3876 38.5263L35.6338 34.9568L37.7878 36.4339H38.034C38.034 36.4339 38.0955 36.4339 38.0955 36.3723L43.8806 31.7565C43.9422 31.695 44.0037 31.6334 44.0037 31.5719L45.05 24.002C45.05 24.0636 45.05 24.0636 45.05 24.002ZM38.3417 35.5107L38.9571 28.6178L44.373 24.7406L43.4498 31.4488L38.3417 35.5107ZM35.6338 34.2183L35.88 30.6487V30.5872V30.5257L35.8184 30.4641L35.7569 30.4026L31.3873 27.51L31.4488 24.3713L38.2802 28.6178L37.6647 35.6953L35.6338 34.2183V34.2183ZM34.7106 38.3417L28.2485 43.5114L28.187 36.2492L35.1414 31.2642L34.7106 38.3417V38.3417ZM24.3713 46.6501L16.0629 53.2353L14.9551 45.7269L24.002 39.2649L24.3713 46.6501V46.6501ZM9.23155 46.4039L7.7545 39.3264L14.3397 45.7269L15.3859 52.866L9.23155 46.4039V46.4039ZM9.10846 10.3393L11.1394 24.3713L3.44645 18.2785L0.67698 5.04658L9.10846 10.3393V10.3393ZM22.5865 5.41584L23.1404 18.7093L11.8779 24.6175L9.78544 10.3393L22.5865 5.41584V5.41584ZM23.8174 34.2798L14.2166 40.6804L12.7395 30.4641L23.3866 24.3713L23.8174 34.2798V34.2798ZM12.0626 30.5257L13.5396 40.4342L6.64672 33.9106L4.67732 24.3097L12.0626 30.5257ZM24.679 38.5879V38.5263V38.4648L24.6175 38.4032L22.0326 36.3108L24.3713 34.7106C24.4944 34.6491 24.4944 34.526 24.4944 34.4029V33.849L27.6331 36.2492L27.6947 43.5114L24.8021 41.1112L24.679 38.5879V38.5879Z" fill="black"/>
</svg>
