<svg width="113" height="15" viewBox="0 0 113 15" fill="none" xmlns="http://www.w3.org/2000/svg">
<path fill-rule="evenodd" clip-rule="evenodd" d="M78.6638 0.208563H80.974V12.0441H90.9894L89.5186 14.3561H78.6638V0.208563V0.208563ZM60.5242 14.3561L51.9796 0.873911C51.4543 -0.00127637 50.0539 -0.00127614 49.4583 0.909097L40.9841 14.3561H43.7856L46.342 10.2937H51.8049L53.2412 7.98225H47.7783L50.7551 3.32546L57.7239 14.3561H60.5242V14.3561ZM65.7235 0.213039C61.8197 0.213039 59.2498 3.37792 59.2498 7.28235C59.2498 11.1861 61.8203 14.3523 65.7235 14.3523L75.2162 14.3408L76.7017 12.0492H65.7932C63.1619 12.0492 61.622 9.91495 61.622 7.28235C61.622 4.64975 63.1612 2.51552 65.7932 2.51552H75.5105L76.9448 0.206006L65.7235 0.213039V0.213039ZM6.47434 2.51552H16.4891C19.1217 2.51552 20.6609 4.64975 20.6609 7.28235C20.6609 9.91495 19.1223 12.0492 16.4891 12.0492H6.47434C3.84174 12.0492 2.30312 9.91495 2.30312 7.28235C2.30312 4.64975 3.84174 2.51552 6.47434 2.51552ZM6.47434 0.213039C2.5699 0.213039 0 3.37792 0 7.28235C0 11.1861 2.5699 14.3523 6.47434 14.3523H16.4891C20.3935 14.3523 22.9634 11.1861 22.9634 7.28235C22.9634 3.37792 20.3935 0.213039 16.4891 0.213039H6.47434ZM93.4582 8.4032C93.8344 10.4952 95.2738 12.0492 97.5206 12.0492H108.429L106.942 14.3408L97.4509 14.3523C93.5458 14.3523 90.9772 11.1861 90.9772 7.28235C90.9772 3.37792 93.5465 0.213039 97.4509 0.213039L108.672 0.206645L107.239 2.51617H97.5213C95.3058 2.51617 93.86 4.0439 93.4588 6.0924H107.169L105.698 8.40384H93.4582V8.4032V8.4032ZM36.0292 8.60792C37.1297 8.58871 38.1787 8.13803 38.9502 7.35295C39.7217 6.56787 40.154 5.51119 40.154 4.41048C40.154 3.30978 39.7217 2.2531 38.9502 1.46802C38.1787 0.682933 37.1297 0.232255 36.0292 0.213039L24.2455 0.207924V14.3555H26.8371V2.51617H36.0292C36.5316 2.51617 37.0134 2.71575 37.3686 3.071C37.7239 3.42625 37.9235 3.90808 37.9235 4.41048C37.9235 4.91289 37.7239 5.39472 37.3686 5.74997C37.0134 6.10522 36.5316 6.3048 36.0292 6.3048H28.6579L36.9734 14.3395H40.3187L34.3658 8.61305L36.0292 8.60792V8.60792ZM111.092 0.221356C111.693 0.221356 112.168 0.696059 112.168 1.32558C112.168 1.96534 111.694 2.4362 111.092 2.4362C110.484 2.4362 110.011 1.96534 110.011 1.32558C110.011 0.696059 110.484 0.221356 111.092 0.221356V0C110.361 0 109.743 0.562345 109.743 1.32494C109.743 2.0952 110.362 2.65755 111.092 2.65755C111.817 2.65755 112.436 2.0952 112.436 1.32494C112.436 0.562345 111.817 0 111.092 0V0.221356Z" fill="#CBCBCB"/>
<path fill-rule="evenodd" clip-rule="evenodd" d="M110.812 0.759486H111.129C111.29 0.759486 111.462 0.794671 111.462 0.984679C111.462 1.22011 111.286 1.23482 111.089 1.23482H110.811V1.43187H111.078L111.483 2.09657H111.743L111.307 1.42163C111.532 1.39348 111.704 1.27449 111.704 1.00003C111.704 0.697429 111.524 0.563721 111.163 0.563721H110.578V2.09657H110.81V0.759486H110.812V0.759486Z" fill="#CBCBCB"/>
</svg>
