<svg width="179" height="161" viewBox="0 0 179 161" fill="none" xmlns="http://www.w3.org/2000/svg">
<path d="M44.0228 98.0727C50.6943 96.8942 56.2045 95.9189 56.2678 95.9055L56.3829 95.8811L50.0844 88.3892C46.6202 84.2687 43.7859 80.8814 43.7859 80.8619C43.7859 80.8249 50.2896 62.915 50.3262 62.8513C50.3384 62.83 54.7644 70.4713 61.0551 81.3744C66.9445 91.5821 71.8001 99.9984 71.8452 100.077L71.9273 100.221L51.9101 100.218L31.8929 100.215L44.0228 98.0727V98.0727ZM120.786 96.2608C117.739 96.0655 115.967 94.3304 115.498 91.0828C115.373 90.2189 115.372 90.1965 115.359 84.588L115.347 79.1599H116.696H118.044L118.055 84.4103C118.064 89.1423 118.07 89.6971 118.115 90.03C118.299 91.381 118.665 92.2895 119.287 92.9416C119.785 93.4635 120.368 93.7691 121.175 93.9312C121.556 94.0077 122.639 94.0079 122.986 93.9315C123.804 93.7515 124.46 93.3954 125.039 92.8171C125.698 92.1579 126.186 91.2228 126.422 90.1652L126.502 89.8088L126.51 84.514L126.519 79.2192H127.896H129.273V87.5428V95.8664H127.91H126.548V94.5458C126.548 93.6484 126.538 93.2284 126.517 93.2354C126.5 93.241 126.43 93.348 126.361 93.4733C125.892 94.3296 125.11 95.1127 124.252 95.5845C123.225 96.1501 122.194 96.3512 120.786 96.2609L120.786 96.2608ZM151.714 96.2474C150.638 96.1665 149.506 95.7967 148.58 95.2241C146.629 94.0173 145.474 92.028 145.136 89.2904C145.019 88.3431 145.005 87.0706 145.103 86.2656C145.321 84.467 146.028 82.7013 147.034 81.4408C147.292 81.1176 147.878 80.5323 148.201 80.2743C149.073 79.5776 150.094 79.0904 151.178 78.8534C151.809 78.7152 152.921 78.6504 153.592 78.7125C155.277 78.8687 156.821 79.6622 157.871 80.911C158.938 82.1797 159.524 83.9526 159.599 86.1357C159.611 86.4778 159.613 87.0777 159.605 87.4687L159.59 88.1796L153.688 88.1871L147.786 88.1945V88.4579C147.786 89.2597 147.981 90.1729 148.318 90.9499C148.609 91.6199 149.109 92.3515 149.518 92.7056C150.358 93.4316 151.386 93.8661 152.511 93.9707C152.928 94.0095 153.99 93.9686 154.466 93.8956C155.822 93.6873 157.111 93.1555 158.152 92.375C158.274 92.2832 158.391 92.1974 158.412 92.1844C158.442 92.1653 158.45 92.4052 158.449 93.4137L158.448 94.6666L158.169 94.8391C156.991 95.5674 155.642 96.0351 154.214 96.2102C153.788 96.2624 152.223 96.2857 151.714 96.2474L151.714 96.2474ZM156.85 85.6797C156.85 84.3367 156.284 82.8447 155.483 82.0765C154.912 81.5282 154.221 81.1932 153.399 81.066C153.011 81.0058 152.192 81.0289 151.782 81.1117C150.916 81.2867 150.199 81.6675 149.575 82.285C148.917 82.9348 148.424 83.7241 148.114 84.6233C148.002 84.9467 147.872 85.4776 147.831 85.7729L147.812 85.9136H152.331H156.85V85.6797ZM76.7902 95.8293C76.7971 95.8089 78.8013 90.5438 81.2439 84.129L85.6851 72.4657L87.1121 72.4656L88.5391 72.4655L88.6575 72.7692C89.0193 73.697 97.5484 95.841 97.5484 95.8525C97.5484 95.8601 96.8653 95.8662 96.0303 95.8661L94.5123 95.8658L93.283 92.5929L92.0537 89.32L87.104 89.32L82.1544 89.3199L82.1114 89.431C82.0877 89.4921 81.5625 90.9648 80.9442 92.7036L79.8201 95.8652L78.2989 95.8657C77.0947 95.8661 76.7802 95.8585 76.7902 95.8292V95.8293ZM91.1502 86.8224C91.1502 86.8172 90.323 84.5745 89.3119 81.8386C87.4203 76.7202 87.3145 76.4123 87.165 75.5906C87.095 75.2052 87.0595 75.1945 87.0179 75.5461C86.9882 75.7974 86.8592 76.3598 86.7598 76.6717C86.7105 76.8265 85.8587 79.1644 84.8669 81.8671C83.8751 84.5698 83.0636 86.7925 83.0636 86.8065C83.0636 86.8204 84.8831 86.8318 87.1069 86.8318C89.3308 86.8318 91.1502 86.8276 91.1502 86.8224V86.8224ZM98.4667 95.44V95.0138L103.398 88.2347L108.329 81.4556L103.865 81.4408L99.3998 81.4259L99.392 80.2929L99.3842 79.1599H105.842H112.3V79.5426V79.9253L107.368 86.7414C104.655 90.4902 102.436 93.5637 102.436 93.5715C102.436 93.5792 104.629 93.5855 107.309 93.5855H112.181V94.7259V95.8663H105.324H98.4667V95.44ZM134.654 95.8466C134.643 95.8357 134.634 92.0768 134.634 87.4934V79.1599H135.982H137.33V80.878C137.33 81.8229 137.341 82.596 137.355 82.596C137.369 82.596 137.435 82.4413 137.501 82.2523C137.804 81.386 138.33 80.5766 139.007 79.9332C139.617 79.3537 140.314 79.0071 141.136 78.8745C141.367 78.8372 141.563 78.8301 142.025 78.8422C142.605 78.8573 142.908 78.8997 143.261 79.0151L143.373 79.0514V80.4503V81.8493L143.054 81.6899C142.492 81.4083 141.937 81.2969 141.269 81.3316C140.835 81.3542 140.55 81.41 140.203 81.5402C139.489 81.8083 138.909 82.2814 138.505 82.9273C137.919 83.8623 137.501 85.0641 137.377 86.1687C137.355 86.3669 137.342 87.9813 137.337 91.1639L137.329 95.8663H136.001C135.271 95.8663 134.665 95.8574 134.654 95.8466ZM20 95.788C20 95.7775 22.9678 90.6256 26.5952 84.3393L33.1903 72.9098L40.8762 66.4598C45.1035 62.9123 48.5735 60.0054 48.5874 60.0001C48.6013 59.9948 48.5457 60.1348 48.4639 60.3112C48.382 60.4875 44.6264 68.5429 40.118 78.212L31.9211 95.7923L25.9606 95.7997C22.6823 95.8038 20 95.7986 20 95.788Z" fill="white" fill-opacity="0.6"/>
</svg>
