<svg width="140" height="41" viewBox="0 0 140 41" fill="none" xmlns="http://www.w3.org/2000/svg">
<path d="M24.0228 38.0727C30.6943 36.8942 36.2045 35.9189 36.2678 35.9055L36.3829 35.8811L30.0844 28.3892C26.6202 24.2687 23.7859 20.8814 23.7859 20.8619C23.7859 20.8249 30.2896 2.91502 30.3262 2.8513C30.3384 2.83 34.7644 10.4713 41.0551 21.3744C46.9445 31.5821 51.8001 39.9984 51.8452 40.0772L51.9273 40.2206L31.9101 40.218L11.8929 40.2155L24.0228 38.0727V38.0727ZM100.786 36.2608C97.7393 36.0655 95.9671 34.3304 95.4975 31.0828C95.3726 30.2189 95.3721 30.1965 95.3594 24.588L95.347 19.1599H96.6955H98.044L98.0546 24.4103C98.0642 29.1423 98.0702 29.6971 98.1155 30.03C98.2991 31.381 98.6646 32.2895 99.2869 32.9416C99.785 33.4635 100.368 33.7691 101.175 33.9312C101.556 34.0077 102.639 34.0079 102.986 33.9315C103.804 33.7515 104.46 33.3954 105.039 32.8171C105.698 32.1579 106.186 31.2228 106.422 30.1652L106.502 29.8088L106.51 24.514L106.519 19.2192H107.896H109.273V27.5428V35.8664H107.91H106.548V34.5458C106.548 33.6484 106.538 33.2284 106.517 33.2354C106.5 33.241 106.43 33.348 106.361 33.4733C105.892 34.3296 105.11 35.1127 104.252 35.5845C103.225 36.1501 102.194 36.3512 100.786 36.2609L100.786 36.2608ZM131.714 36.2474C130.638 36.1665 129.506 35.7967 128.58 35.2241C126.629 34.0173 125.474 32.028 125.136 29.2904C125.019 28.3431 125.005 27.0706 125.103 26.2656C125.321 24.467 126.028 22.7013 127.034 21.4408C127.292 21.1176 127.878 20.5323 128.201 20.2743C129.073 19.5776 130.094 19.0904 131.178 18.8534C131.809 18.7152 132.921 18.6504 133.592 18.7125C135.277 18.8687 136.821 19.6622 137.871 20.911C138.938 22.1797 139.524 23.9526 139.599 26.1357C139.611 26.4778 139.613 27.0777 139.605 27.4687L139.59 28.1796L133.688 28.1871L127.786 28.1945V28.4579C127.786 29.2597 127.981 30.1729 128.318 30.9499C128.609 31.6199 129.109 32.3515 129.518 32.7056C130.358 33.4316 131.386 33.8661 132.511 33.9707C132.928 34.0095 133.99 33.9686 134.466 33.8956C135.822 33.6873 137.111 33.1555 138.152 32.375C138.274 32.2832 138.391 32.1974 138.412 32.1844C138.442 32.1653 138.45 32.4052 138.449 33.4137L138.448 34.6666L138.169 34.8391C136.991 35.5674 135.642 36.0351 134.214 36.2102C133.788 36.2624 132.223 36.2857 131.714 36.2474L131.714 36.2474ZM136.85 25.6797C136.85 24.3367 136.284 22.8447 135.483 22.0765C134.912 21.5282 134.221 21.1932 133.399 21.066C133.011 21.0058 132.192 21.0289 131.782 21.1117C130.916 21.2867 130.199 21.6675 129.575 22.285C128.917 22.9348 128.424 23.7241 128.114 24.6233C128.002 24.9467 127.872 25.4776 127.831 25.7729L127.812 25.9136H132.331H136.85V25.6797ZM56.7902 35.8293C56.7971 35.8089 58.8013 30.5438 61.2439 24.129L65.6851 12.4657L67.1121 12.4656L68.5391 12.4655L68.6575 12.7692C69.0193 13.697 77.5484 35.841 77.5484 35.8525C77.5484 35.8601 76.8653 35.8662 76.0303 35.8661L74.5123 35.8658L73.283 32.5929L72.0537 29.32L67.104 29.32L62.1544 29.3199L62.1114 29.431C62.0877 29.4921 61.5625 30.9648 60.9442 32.7036L59.8201 35.8652L58.2989 35.8657C57.0947 35.8661 56.7802 35.8585 56.7902 35.8292V35.8293ZM71.1502 26.8224C71.1502 26.8172 70.323 24.5745 69.3119 21.8386C67.4203 16.7202 67.3145 16.4123 67.165 15.5906C67.095 15.2052 67.0595 15.1945 67.0179 15.5461C66.9882 15.7974 66.8592 16.3598 66.7598 16.6717C66.7105 16.8265 65.8587 19.1644 64.8669 21.8671C63.8751 24.5698 63.0636 26.7925 63.0636 26.8065C63.0636 26.8204 64.8831 26.8318 67.1069 26.8318C69.3308 26.8318 71.1502 26.8276 71.1502 26.8224V26.8224ZM78.4667 35.44V35.0138L83.3981 28.2347L88.3294 21.4556L83.8646 21.4408L79.3998 21.4259L79.392 20.2929L79.3842 19.1599H85.842H92.2998V19.5426V19.9253L87.3679 26.7414C84.6553 30.4902 82.4359 33.5637 82.4359 33.5715C82.4359 33.5792 84.6287 33.5855 87.3086 33.5855H92.1813V34.7259V35.8663H85.324H78.4667V35.44ZM114.654 35.8466C114.643 35.8357 114.634 32.0768 114.634 27.4934V19.1599H115.982H117.33V20.878C117.33 21.8229 117.341 22.596 117.355 22.596C117.369 22.596 117.435 22.4413 117.501 22.2523C117.804 21.386 118.33 20.5766 119.007 19.9332C119.617 19.3537 120.314 19.0071 121.136 18.8745C121.367 18.8372 121.563 18.8301 122.025 18.8422C122.605 18.8573 122.908 18.8997 123.261 19.0151L123.373 19.0514V20.4503V21.8493L123.054 21.6899C122.492 21.4083 121.937 21.2969 121.269 21.3316C120.835 21.3542 120.55 21.41 120.203 21.5402C119.489 21.8083 118.909 22.2814 118.505 22.9273C117.919 23.8623 117.501 25.0641 117.377 26.1687C117.355 26.3669 117.342 27.9813 117.337 31.1639L117.329 35.8663H116.001C115.271 35.8663 114.665 35.8574 114.654 35.8466ZM0 35.788C0 35.7775 2.96783 30.6256 6.59517 24.3393L13.1903 12.9098L20.8762 6.45981C25.1035 2.91229 28.5735 0.00544711 28.5874 0.000145719C28.6013 -0.00515462 28.5457 0.134805 28.4639 0.311169C28.382 0.487533 24.6264 8.54293 20.118 18.212L11.9211 35.7923L5.96055 35.7997C2.68225 35.8038 0 35.7986 0 35.788Z" fill="white" fill-opacity="0.6"/>
</svg>
