<svg width="79" height="55" viewBox="0 0 79 55" fill="none" xmlns="http://www.w3.org/2000/svg">
<path d="M32.5029 5.96254C35.0219 3.3379 38.5289 1.71004 42.4074 1.71004C47.5633 1.71004 52.0615 4.58502 54.4571 8.85299C56.5388 7.92292 58.8431 7.4055 61.2674 7.4055C70.5666 7.4055 78.1057 15.0103 78.1057 24.3907C78.1057 33.7722 70.5666 41.377 61.2674 41.377C60.1536 41.3777 59.0425 41.267 57.9507 41.0465C55.8412 44.8094 51.8213 47.3518 47.2073 47.3518C45.2757 47.3518 43.4488 46.9056 41.8222 46.1123C39.6837 51.1424 34.7014 54.6694 28.8946 54.6694C22.8476 54.6694 17.6939 50.8431 15.7157 45.477C14.8513 45.6606 13.9556 45.7563 13.0365 45.7563C5.83682 45.7563 0 39.8595 0 32.5841C0 27.7086 2.62244 23.4516 6.51881 21.1741C5.71665 19.3284 5.27045 17.2911 5.27045 15.1493C5.27045 6.78245 12.063 0 20.441 0C25.3599 0 29.7314 2.33871 32.5029 5.96254Z" fill="#CBCBCB"/>
<path d="M11.3131 28.3502C11.2641 28.4782 11.3309 28.5049 11.3464 28.5271C11.4933 28.6339 11.6424 28.7108 11.7926 28.7964C12.5892 29.2191 13.3415 29.3426 14.1281 29.3426C15.7302 29.3426 16.7249 28.4904 16.7249 27.1185V27.0918C16.7249 25.8234 15.6023 25.3628 14.5486 25.0301L14.4118 24.9856C13.6174 24.7275 12.932 24.505 12.932 23.9821V23.9543C12.932 23.507 13.3325 23.1776 13.9534 23.1776C14.6432 23.1776 15.4621 23.4069 15.9895 23.6983C15.9895 23.6983 16.1441 23.7985 16.2009 23.6483C16.232 23.5682 16.4991 22.8494 16.5269 22.7715C16.5569 22.687 16.5035 22.6246 16.449 22.5913C15.8471 22.2252 15.0148 21.9749 14.1537 21.9749L13.9935 21.9759C12.5271 21.9759 11.5035 22.8616 11.5035 24.1311V24.1578C11.5035 25.4963 12.6328 25.9302 13.6909 26.2328L13.8611 26.2851C14.6322 26.5221 15.2964 26.7257 15.2964 27.2687V27.2954C15.2964 27.7917 14.8648 28.161 14.1682 28.161C13.8979 28.161 13.0356 28.1554 12.1044 27.5668C11.9919 27.5011 11.9263 27.4534 11.8395 27.401C11.794 27.3721 11.6793 27.322 11.6293 27.4734L11.3131 28.3502V28.3502ZM34.7681 28.3502C34.7191 28.4782 34.7859 28.5049 34.8014 28.5271C34.9483 28.6339 35.0974 28.7108 35.2476 28.7964C36.0442 29.2191 36.7965 29.3426 37.583 29.3426C39.1851 29.3426 40.1799 28.4904 40.1799 27.1185V27.0918C40.1799 25.8234 39.0572 25.3628 38.0035 25.0301L37.8667 24.9856C37.0723 24.7275 36.3868 24.505 36.3868 23.9821V23.9543C36.3868 23.507 36.7874 23.1776 37.4082 23.1776C38.0981 23.1776 38.917 23.4069 39.4444 23.6983C39.4444 23.6983 39.599 23.7985 39.6557 23.6483C39.6868 23.5682 39.9539 22.8494 39.9817 22.7715C40.0118 22.687 39.9584 22.6246 39.9039 22.5913C39.3019 22.2252 38.4697 21.9749 37.6085 21.9749L37.4483 21.9759C35.9819 21.9759 34.9583 22.8616 34.9583 24.1311V24.1578C34.9583 25.4963 36.0876 25.9302 37.1457 26.2328L37.3159 26.2851C38.087 26.5221 38.7524 26.7257 38.7524 27.2687V27.2954C38.7524 27.7917 38.3196 28.161 37.623 28.161C37.3527 28.161 36.4904 28.1554 35.5592 27.5668C35.4468 27.5011 35.3801 27.4555 35.2956 27.401C35.2666 27.3821 35.1308 27.3298 35.0841 27.4734L34.7681 28.3502V28.3502ZM50.7802 25.663C50.7802 26.4385 50.6355 27.0493 50.3507 27.481C50.0692 27.9083 49.6431 28.1164 49.049 28.1164C48.4538 28.1164 48.0299 27.9094 47.7528 27.481C47.4724 27.0505 47.3301 26.4385 47.3301 25.663C47.3301 24.8887 47.4724 24.2789 47.7528 23.8517C48.0299 23.4289 48.4538 23.2231 49.049 23.2231C49.6432 23.2231 50.0693 23.4289 50.3519 23.8517C50.6356 24.2789 50.7802 24.8886 50.7802 25.663V25.663ZM52.1176 24.2255C51.9862 23.7815 51.7816 23.3899 51.509 23.064C51.2364 22.7368 50.8915 22.4743 50.482 22.2829C50.0736 22.0927 49.5909 21.9959 49.049 21.9959C48.5061 21.9959 48.0232 22.0927 47.6148 22.2829C47.2054 22.4743 46.8605 22.7369 46.5868 23.064C46.3153 23.3911 46.1106 23.7827 45.9782 24.2255C45.848 24.6672 45.7824 25.1501 45.7824 25.663C45.7824 26.176 45.848 26.6599 45.9782 27.1005C46.1106 27.5433 46.3142 27.935 46.588 28.2621C46.8605 28.5892 47.2066 28.8507 47.6149 29.0364C48.0243 29.2223 48.5061 29.3168 49.0491 29.3168C49.5909 29.3168 50.0727 29.2223 50.4821 29.0364C50.8904 28.8507 51.2364 28.5891 51.5091 28.2621C51.7816 27.9361 51.9863 27.5444 52.1177 27.1005C52.249 26.6589 52.3146 26.1748 52.3146 25.663C52.3146 25.1512 52.2489 24.6672 52.1176 24.2255V24.2255ZM63.0998 27.9092C63.0554 27.7791 62.9296 27.828 62.9296 27.828C62.735 27.9026 62.5279 27.9716 62.3077 28.006C62.084 28.0404 61.8381 28.0583 61.5744 28.0583C60.927 28.0583 60.4129 27.8659 60.0447 27.4853C59.6752 27.1048 59.4683 26.4896 59.4705 25.6573C59.4727 24.8996 59.6551 24.3299 59.9834 23.8961C60.3095 23.4644 60.8057 23.2429 61.4677 23.2429C62.0196 23.2429 62.4401 23.3063 62.8806 23.4454C62.8806 23.4454 62.9863 23.491 63.0364 23.3531C63.1532 23.0281 63.24 22.7956 63.3646 22.4385C63.4002 22.3372 63.3134 22.2938 63.2823 22.2816C63.1087 22.2137 62.6992 22.1036 62.3899 22.0569C62.1007 22.0124 61.7624 21.989 61.3864 21.989C60.8244 21.989 60.3238 22.0847 59.8955 22.2761C59.4682 22.4663 59.1055 22.7289 58.8185 23.0561C58.5314 23.3832 58.3134 23.7747 58.1676 24.2176C58.023 24.6592 57.9496 25.1443 57.9496 25.6573C57.9496 26.7666 58.2489 27.6633 58.8397 28.3198C59.4315 28.9785 60.3206 29.3133 61.48 29.3133C62.1653 29.3133 62.8685 29.1743 63.3736 28.9751C63.3736 28.9751 63.4704 28.9284 63.4281 28.8161L63.0998 27.9092V27.9092ZM65.4398 24.9201C65.5032 24.4896 65.6223 24.1312 65.8059 23.852C66.083 23.4281 66.5057 23.1956 67.0999 23.1956C67.6941 23.1956 68.0868 23.4292 68.3683 23.852C68.5552 24.1312 68.6364 24.5052 68.6687 24.9201H65.4398ZM69.9426 23.9732C69.8291 23.5449 69.5476 23.112 69.3629 22.914C69.0714 22.6002 68.7866 22.3811 68.504 22.2587C68.1346 22.1007 67.6917 21.9961 67.2067 21.9961C66.6415 21.9961 66.1285 22.0907 65.7124 22.2865C65.2953 22.4823 64.9448 22.7494 64.6699 23.0821C64.395 23.4136 64.1882 23.8086 64.0568 24.257C63.9245 24.7032 63.8577 25.1894 63.8577 25.7022C63.8577 26.2241 63.9267 26.7103 64.0635 27.1475C64.2015 27.5881 64.4218 27.9764 64.72 28.2979C65.017 28.6217 65.3998 28.8754 65.8582 29.0522C66.3133 29.228 66.8663 29.3193 67.5015 29.3181C68.8089 29.3137 69.4976 29.0222 69.7813 28.8653C69.8314 28.8375 69.8792 28.7886 69.819 28.6484L69.5231 27.8194C69.4787 27.696 69.3529 27.7415 69.3529 27.7415C69.0291 27.8617 68.5686 28.0776 67.4948 28.0754C66.7928 28.0743 66.272 27.8673 65.946 27.5435C65.6111 27.212 65.4476 26.7246 65.4186 26.0371L69.9459 26.0415C69.9459 26.0415 70.0649 26.0393 70.0772 25.9235C70.0817 25.8747 70.233 24.9935 69.9426 23.9732V23.9732ZM29.1832 24.9201C29.2477 24.4896 29.3657 24.1312 29.5493 23.852C29.8263 23.4281 30.2491 23.1956 30.8432 23.1956C31.4373 23.1956 31.8301 23.4292 32.1127 23.852C32.2985 24.1312 32.3797 24.5052 32.412 24.9201H29.1832V24.9201ZM33.6848 23.9732C33.5714 23.5449 33.291 23.112 33.1063 22.914C32.8148 22.6002 32.53 22.3811 32.2474 22.2587C31.878 22.1007 31.4352 21.9961 30.9501 21.9961C30.386 21.9961 29.8719 22.0907 29.4559 22.2865C29.0387 22.4823 28.6882 22.7494 28.4133 23.0821C28.1385 23.4136 27.9316 23.8086 27.8003 24.257C27.669 24.7032 27.6012 25.1894 27.6012 25.7022C27.6012 26.2241 27.6701 26.7103 27.807 27.1475C27.945 27.5881 28.1653 27.9764 28.4635 28.2979C28.7606 28.6217 29.1433 28.8754 29.6017 29.0522C30.0568 29.228 30.6097 29.3193 31.245 29.3181C32.5523 29.3137 33.241 29.0222 33.5248 28.8653C33.5749 28.8375 33.6227 28.7886 33.5626 28.6484L33.2678 27.8194C33.2221 27.696 33.0965 27.7415 33.0965 27.7415C32.7727 27.8617 32.3132 28.0776 31.2373 28.0754C30.5364 28.0743 30.0156 27.8673 29.6896 27.5435C29.3547 27.212 29.1912 26.7246 29.1622 26.0371L33.6894 26.0415C33.6894 26.0415 33.8084 26.0393 33.8207 25.9235C33.825 25.8747 33.9763 24.9935 33.6848 23.9732V23.9732ZM19.3977 27.8845C19.2207 27.7431 19.1963 27.7075 19.1362 27.6163C19.0472 27.4772 19.0016 27.2792 19.0016 27.0277C19.0016 26.6294 19.1328 26.3435 19.4055 26.151C19.4022 26.1521 19.7949 25.8116 20.7183 25.8238C21.367 25.8328 21.9466 25.9285 21.9466 25.9285V27.9868H21.9477C21.9477 27.9868 21.3725 28.1103 20.725 28.1492C19.8037 28.2049 19.3943 27.8834 19.3977 27.8845V27.8845ZM21.1989 24.7035C21.0154 24.6901 20.7772 24.6823 20.4924 24.6823C20.1041 24.6823 19.7292 24.7312 19.3776 24.8258C19.0238 24.9204 18.7056 25.0684 18.4318 25.2641C18.1585 25.4592 17.9339 25.7147 17.7754 26.0107C17.6152 26.3089 17.534 26.6605 17.534 27.0544C17.534 27.4549 17.6029 27.8031 17.7409 28.0881C17.8789 28.374 18.0781 28.612 18.3317 28.7957C18.5831 28.9793 18.8936 29.1138 19.254 29.1951C19.609 29.2763 20.0117 29.3174 20.4524 29.3174C20.9163 29.3174 21.3791 29.2797 21.8275 29.2028C22.2715 29.1271 22.8166 29.017 22.9679 28.9826C23.074 28.957 23.1797 28.9299 23.285 28.9013C23.3975 28.8736 23.3885 28.7533 23.3885 28.7533L23.3863 24.6133C23.3863 23.7054 23.1438 23.0322 22.6664 22.615C22.1913 22.1989 21.4915 21.9885 20.587 21.9885C20.2476 21.9885 19.7013 22.0354 19.3742 22.101C19.3742 22.101 18.3851 22.2924 17.9778 22.6106C17.9778 22.6106 17.8889 22.6662 17.9378 22.7909L18.2583 23.6521C18.2983 23.7633 18.4063 23.7255 18.4063 23.7255C18.4063 23.7255 18.4408 23.7121 18.4809 23.6887C19.3521 23.2148 20.4535 23.2292 20.4535 23.2292C20.9431 23.2292 21.3192 23.3271 21.5728 23.5218C21.8198 23.7109 21.9455 23.9968 21.9455 24.5999V24.7913C21.5561 24.7357 21.1989 24.7035 21.1989 24.7035V24.7035ZM57.7131 22.3708C57.7475 22.2684 57.6752 22.2194 57.6451 22.2083C57.5684 22.1783 57.1834 22.0971 56.8863 22.0781C56.3179 22.0437 56.0019 22.1394 55.7192 22.2662C55.4388 22.393 55.1274 22.5977 54.9537 22.8303V22.2795C54.9537 22.2028 54.8992 22.1415 54.8235 22.1415H53.6631C53.5875 22.1415 53.533 22.2027 53.533 22.2795V29.032C53.533 29.1076 53.5953 29.17 53.6709 29.17H54.8603C54.8967 29.1698 54.9316 29.1551 54.9572 29.1292C54.9829 29.1034 54.9972 29.0684 54.9971 29.032V25.6586C54.9971 25.2057 55.0472 24.7541 55.1474 24.4703C55.2453 24.1899 55.3788 23.9652 55.5435 23.8038C55.7092 23.6436 55.8972 23.5313 56.1031 23.4679C56.3133 23.4033 56.5459 23.3822 56.7106 23.3822C56.9476 23.3822 57.2079 23.4433 57.2079 23.4433C57.2946 23.4533 57.3436 23.3999 57.3725 23.3209C57.4504 23.114 57.6708 22.4942 57.7131 22.3708" fill="#121212"/>
<path d="M46.5486 19.2414C46.404 19.197 46.2727 19.1669 46.1013 19.1346C45.9277 19.1035 45.7208 19.0879 45.4861 19.0879C44.6671 19.0879 44.0218 19.3193 43.569 19.7754C43.1184 20.2295 42.8124 20.9204 42.6588 21.8294L42.6032 22.1353H41.5752C41.5752 22.1353 41.4506 22.1309 41.4238 22.2667L41.2559 23.209C41.2436 23.2981 41.2826 23.3548 41.4027 23.3548H42.403L41.3883 29.0202C41.3092 29.4764 41.218 29.8514 41.1167 30.1361C41.0177 30.4166 40.921 30.6268 40.8008 30.7804C40.6851 30.9273 40.576 31.0363 40.3868 31.0997C40.2311 31.152 40.0508 31.1764 39.8539 31.1764C39.7448 31.1764 39.5992 31.1585 39.4912 31.1363C39.3844 31.1151 39.3276 31.0918 39.2464 31.0573C39.2464 31.0573 39.1296 31.0129 39.0829 31.1297C39.0461 31.2265 38.7791 31.9596 38.7468 32.0498C38.7157 32.1399 38.7602 32.21 38.8169 32.2311C38.9504 32.2779 39.0494 32.309 39.2308 32.3524C39.4823 32.4114 39.6947 32.4147 39.8939 32.4147C40.3099 32.4147 40.6905 32.3558 41.0054 32.2423C41.3214 32.1277 41.5972 31.9285 41.842 31.6593C42.1058 31.3678 42.2715 31.0629 42.4296 30.6457C42.5864 30.234 42.7211 29.7222 42.8279 29.1259L43.8482 23.3548H45.339C45.339 23.3548 45.4647 23.3592 45.4904 23.2224L45.6594 22.2812C45.6706 22.1911 45.6328 22.1354 45.5114 22.1354H44.0639C44.0718 22.1032 44.1374 21.5935 44.3032 21.1141C44.3744 20.9105 44.5079 20.7447 44.6203 20.6312C44.7316 20.5199 44.8595 20.4409 44.9998 20.3953C45.1433 20.3485 45.3069 20.3263 45.486 20.3263C45.6218 20.3263 45.7563 20.3419 45.8576 20.363C45.9977 20.3931 46.0522 20.4086 46.0891 20.4198C46.2371 20.4643 46.257 20.4209 46.286 20.3498L46.632 19.3996C46.6676 19.297 46.5797 19.2536 46.5486 19.2414V19.2414ZM26.324 29.0325C26.324 29.1082 26.2695 29.1694 26.1939 29.1694H24.9933C24.9177 29.1694 24.8643 29.1082 24.8643 29.0325V19.3705C24.8643 19.2949 24.9177 19.2337 24.9933 19.2337H26.1939C26.2695 19.2337 26.324 19.2949 26.324 19.3705V29.0325Z" fill="#121212"/>
</svg>
